<svg width="240" height="240" viewBox="0 0 240 240" fill="none" xmlns="http://www.w3.org/2000/svg">
  <!-- Aioli PH Thumbnail - Icon on Void background -->
  <defs>
    <radialGradient id="glow" cx="120" cy="120" r="120" gradientUnits="userSpaceOnUse">
      <stop offset="0%" stop-color="#5ae6a2" stop-opacity="0.08"/>
      <stop offset="100%" stop-color="#5ae6a2" stop-opacity="0"/>
    </radialGradient>
  </defs>

  <!-- Background -->
  <rect width="240" height="240" rx="48" fill="#0e0e12"/>
  <rect width="240" height="240" rx="48" fill="url(#glow)"/>

  <!-- Garlic Vortex Mark - centered and scaled -->
  <g transform="translate(120, 110) scale(1.7)">
    <path d="M60 2 Q32 12, 20 38 Q12 60, 24 78 Q36 92, 50 82 Q58 76, 58 66 Q58 60, 60 58"
          stroke="#5ae6a2" stroke-width="4" fill="none" stroke-linecap="round" opacity="0.7"
          transform="translate(-60,-58)"/>
    <path d="M60 2 Q88 12, 100 38 Q108 60, 96 78 Q84 92, 70 82 Q62 76, 62 66 Q62 60, 60 58"
          stroke="#5ae6a2" stroke-width="4" fill="none" stroke-linecap="round" opacity="0.7"
          transform="translate(-60,-58)"/>
    <path d="M36 106 Q28 88, 32 70 Q36 54, 46 48 Q54 44, 58 52 Q60 56, 60 58"
          stroke="#5ae6a2" stroke-width="3" fill="none" stroke-linecap="round" opacity="0.45"
          transform="translate(-60,-58)"/>
    <path d="M84 106 Q92 88, 88 70 Q84 54, 74 48 Q66 44, 62 52 Q60 56, 60 58"
          stroke="#5ae6a2" stroke-width="3" fill="none" stroke-linecap="round" opacity="0.45"
          transform="translate(-60,-58)"/>
    <path d="M60 -4 Q60 10, 58 24 Q56 36, 58 46 Q59 52, 60 56"
          stroke="#5ae6a2" stroke-width="2" fill="none" stroke-linecap="round" opacity="0.3"
          transform="translate(-60,-58)"/>
    <circle cx="0" cy="0" r="8" fill="#5ae6a2"/>
    <circle cx="0" cy="-58" r="3.5" fill="#5ae6a2" opacity="0.5"/>
    <circle cx="-25" cy="50" r="3" fill="#5ae6a2" opacity="0.4"/>
    <circle cx="25" cy="50" r="3" fill="#5ae6a2" opacity="0.4"/>
  </g>
</svg>
