<svg width="1280" height="640" viewBox="0 0 1280 640" fill="none" xmlns="http://www.w3.org/2000/svg">
  <!-- Aioli - GitHub Social Preview Banner -->
  <defs>
    <linearGradient id="bgGrad" x1="0" y1="0" x2="1280" y2="640" gradientUnits="userSpaceOnUse">
      <stop offset="0%" stop-color="#080c10"/>
      <stop offset="50%" stop-color="#0c1610"/>
      <stop offset="100%" stop-color="#080c10"/>
    </linearGradient>
    <radialGradient id="glow" cx="440" cy="320" r="300" gradientUnits="userSpaceOnUse">
      <stop offset="0%" stop-color="#5ae6a2" stop-opacity="0.06"/>
      <stop offset="100%" stop-color="#5ae6a2" stop-opacity="0"/>
    </radialGradient>
  </defs>
  
  <!-- Background -->
  <rect width="1280" height="640" fill="url(#bgGrad)"/>
  <rect width="1280" height="640" fill="url(#glow)"/>

  <!-- Garlic Vortex Mark - Large -->
  <g transform="translate(300, 160) scale(2.6)">
    <path d="M60 4 Q28 16, 16 44 Q6 70, 24 96 Q38 114, 60 116 Q82 114, 96 96 Q114 70, 104 44 Q92 16, 60 4" 
          stroke="#5ae6a2" stroke-width="0.6" fill="none" opacity="0.06"/>
    <path d="M60 2 Q32 12, 20 38 Q12 60, 24 78 Q36 92, 50 82 Q58 76, 58 66 Q58 60, 60 58" 
          stroke="#5ae6a2" stroke-width="2.8" fill="none" stroke-linecap="round" opacity="0.7"/>
    <path d="M60 2 Q88 12, 100 38 Q108 60, 96 78 Q84 92, 70 82 Q62 76, 62 66 Q62 60, 60 58" 
          stroke="#5ae6a2" stroke-width="2.8" fill="none" stroke-linecap="round" opacity="0.7"/>
    <path d="M36 106 Q28 88, 32 70 Q36 54, 46 48 Q54 44, 58 52 Q60 56, 60 58" 
          stroke="#5ae6a2" stroke-width="2" fill="none" stroke-linecap="round" opacity="0.45"/>
    <path d="M84 106 Q92 88, 88 70 Q84 54, 74 48 Q66 44, 62 52 Q60 56, 60 58" 
          stroke="#5ae6a2" stroke-width="2" fill="none" stroke-linecap="round" opacity="0.45"/>
    <path d="M60 -4 Q60 10, 58 24 Q56 36, 58 46 Q59 52, 60 56" 
          stroke="#5ae6a2" stroke-width="1.5" fill="none" stroke-linecap="round" opacity="0.3"/>
    <circle cx="60" cy="58" r="6" fill="#5ae6a2"/>
    <circle cx="60" cy="58" r="10" fill="none" stroke="#5ae6a2" stroke-width="0.8" opacity="0.15"/>
    <circle cx="60" cy="0" r="3" fill="#5ae6a2" opacity="0.5"/>
    <circle cx="35" cy="108" r="2.5" fill="#5ae6a2" opacity="0.4"/>
    <circle cx="85" cy="108" r="2.5" fill="#5ae6a2" opacity="0.4"/>
  </g>

  <!-- Wordmark -->
  <text x="680" y="310" font-family="'Outfit', 'Segoe UI', sans-serif" font-size="86" font-weight="300" fill="#e8e6e1" letter-spacing="-2">
    <tspan fill="#5ae6a2" font-weight="500">Ai</tspan>oli
  </text>

  <!-- Tagline -->
  <text x="686" y="360" font-family="'JetBrains Mono', 'Consolas', monospace" font-size="16" fill="#5ae6a2" letter-spacing="4" opacity="0.45">OPEN SOURCE</text>

  <!-- Description -->
  <text x="686" y="400" font-family="'Outfit', 'Segoe UI', sans-serif" font-size="20" fill="#888" font-weight="300">AI agent orchestration design system</text>

  <!-- Subtle border -->
  <rect x="0.5" y="0.5" width="1279" height="639" rx="0" fill="none" stroke="#5ae6a2" stroke-width="1" opacity="0.06"/>
</svg>
